# xmcd
#
# Track frame offsets: 
#        150
#        14533
#        30077
#        43123
#        55135
#        71905
#        91052
#        105810
#        120617
#        135386
#        152816
#
# Disc length: 2234 seconds
#
# Revision: 0
# Processed by: cddbd v1.5.2PL0 Copyright (c) Steve Scherf et al.
# Submitted via: ExactAudioCopy v1.0b1
#
DISCID=8008b80b
DTITLE=Theodore Ziras - Monster 5
DYEAR=2011
DGENRE=Neoclassical Metal
TTITLE0=Tearing Apart
TTITLE1=Chaos IMF
TTITLE2=Liquid Fire
TTITLE3=Alex Left The Building
TTITLE4=Future Waves
TTITLE5=1923
TTITLE6=Into The Rush
TTITLE7=Paradigma
TTITLE8=Transition Game
TTITLE9=Mess
TTITLE10=Monster 5
EXTD=
EXTT0=
EXTT1=
EXTT2=
EXTT3=
EXTT4=
EXTT5=
EXTT6=
EXTT7=
EXTT8=
EXTT9=
EXTT10=
PLAYORDER=
